Coordinates
version=1
nRows=22
nColumns=24
inDegrees=yes

Units are S.I. units (second, meters, Newtons, ...)
Angles are in degrees.

endheader
time	pelvis_tilt	pelvis_list	pelvis_rotation	pelvis_tx	pelvis_ty	pelvis_tz	hip_flexion_r	hip_adduction_r	hip_rotation_r	knee_angle_r	ankle_angle_r	subtalar_angle_r	mtp_angle_r	hip_flexion_l	hip_adduction_l	hip_rotation_l	knee_angle_l	ankle_angle_l	subtalar_angle_l	mtp_angle_l	lumbar_extension	lumbar_bending	lumbar_rotation
      5.15000000	     -9.07095666	     -2.56430801	      6.95554749	     -1.29093889	     -0.03179941	      2.04387268	     34.15139021	      0.42519866	    -18.77804698	     -9.19421149	     10.58731672	     12.12708845	    -38.10365276	     -5.20273015	     -0.03963141	     -5.99695187	    -15.57536148	     10.86186457	      8.08147140	     14.40960790	      4.86813985	      1.09199211	     -8.68566283
      5.16000000	     -8.98299380	     -2.79586632	      7.14871498	     -1.27673305	     -0.03333626	      2.04438801	     34.24809576	      0.56638397	    -18.59596546	    -10.83233056	     10.28440071	     10.52549184	    -38.45790648	     -5.35651579	     -0.68340042	     -5.87760001	    -17.08410883	     10.39474897	      8.97429915	     14.66558258	      5.03494089	      1.33383678	     -8.92709970
      5.17000000	     -8.89178444	     -3.08781221	      7.16280639	     -1.26233181	     -0.03474327	      2.04533442	     34.19292121	      0.95056869	    -18.00077683	    -12.18625536	      9.52559817	      8.80871593	    -39.27258678	     -5.41935574	     -1.44276171	     -6.14479968	    -18.75080647	      9.64517432	     10.04648373	     15.46195044	      5.21194957	      1.63747588	     -8.97785303
      5.18000000	     -8.77246875	     -3.58930834	      7.21748713	     -1.24778097	     -0.03575912	      2.04624805	     33.91151947	      1.56026406	    -17.43486293	    -13.09238178	      8.36854843	      7.24087142	    -41.50597993	     -5.35779718	     -2.44842168	     -6.36004212	    -20.51796915	      8.15600715	     10.77529667	     18.44299313	      5.40369606	      2.16529179	     -9.09982935
      5.19000000	     -8.82095131	     -4.25831753	      7.09275445	     -1.23315517	     -0.03662916	      2.04754291	     33.75495443	      2.44638446	    -16.73803652	    -13.71747231	      6.52214676	      5.70088567	    -42.30402211	     -4.89483877	     -3.68823355	     -6.97405536	    -22.71304846	      6.83755477	     11.94091967	     19.23782370	      5.79482198	      2.85276824	     -9.02163245
      5.20000000	     -8.81589648	     -4.97859348	      6.89954040	     -1.21873495	     -0.03694146	      2.04878223	     33.55508986	      3.41679681	    -15.89960635	    -14.28130459	      4.64043022	      4.30109707	    -43.95554310	     -4.33154257	     -4.97460551	     -7.57680224	    -24.91570194	      4.23018091	     12.37032341	     23.79383879	      6.09426209	      3.64246783	     -8.91831024
      5.21000000	     -8.91912807	     -5.82151886	      6.70705613	     -1.20425756	     -0.03703617	      2.05000302	     33.56186909	      4.45743932	    -15.30781078	    -15.03002107	      2.88968457	      3.11254844	    -44.71290356	     -3.39589549	     -6.44374240	     -8.24489946	    -27.46417092	      1.34987360	     12.83935327	     27.52918650	      6.53658631	      4.54465681	     -8.87074867
      5.22000000	     -9.08201904	     -6.56701374	      6.47511766	     -1.18998728	     -0.03696383	      2.05124483	     33.72676890	      5.42487163	    -14.64599618	    -16.03565350	      1.46876185	      1.79594366	    -45.11226091	     -2.18418071	     -7.79080603	     -8.74987583	    -30.20372316	     -2.20457923	     12.78823925	     31.39500568	      6.99336029	      5.35182172	     -8.78098930
      5.23000000	     -9.23835278	     -7.33092020	      6.30827796	     -1.17580897	     -0.03684288	      2.05244189	     33.87616012	      6.38333950	    -14.21550444	    -17.12852564	      0.55545221	      0.54913797	    -45.45855774	     -0.74198787	     -9.17465741	     -9.00213987	    -33.13353091	     -6.25194825	     12.43939694	     35.64489351	      7.43344643	      6.16380452	     -8.71998571
      5.24000000	     -9.36557587	     -8.11572839	      6.19161117	     -1.16176062	     -0.03675158	      2.05362425	     33.89842130	      7.37456832	    -13.88613813	    -18.12692672	      0.16098258	     -0.61888100	    -45.94219137	      0.87390150	    -10.57049498	     -8.97503626	    -36.19187787	    -10.63394965	     11.70020655	     39.97898278	      7.83256261	      6.98294685	     -8.83050311
      5.25000000	     -9.45953390	     -8.95762989	      6.07104328	     -1.14795420	     -0.03670579	      2.05486937	     33.74563435	      8.47384220	    -13.60723199	    -18.88755638	      0.12646760	     -1.66510304	    -46.69911327	      2.63194062	    -11.98347469	     -8.62848988	    -39.36266077	    -15.06022470	     10.63069160	     43.94675776	      8.16488541	      7.85300471	     -8.87834663
      5.26000000	     -9.56542918	     -9.84316064	      5.90776699	     -1.13439163	     -0.03669917	      2.05614959	     33.46025687	      9.66888516	    -13.33981959	    -19.38630590	      0.35104622	     -2.51894551	    -47.69886610	      4.52619002	    -13.37217484	     -8.05601259	    -42.59091332	    -19.25043441	      9.22221114	     46.94805180	      8.47830731	      8.77477732	     -8.89543112
      5.27000000	     -9.63848549	    -10.72473686	      5.70028690	     -1.12110590	     -0.03659388	      2.05742875	     33.01115458	     10.89734473	    -13.13767444	    -19.65002267	      0.72632107	     -3.15633494	    -48.86643971	      6.45881231	    -14.67055099	     -7.33412557	    -45.80248231	    -22.97715597	      7.48966428	     48.56142780	      8.70706749	      9.70313590	     -8.83463170
      5.28000000	     -9.64890879	    -11.60446657	      5.52203907	     -1.10803357	     -0.03629521	      2.05857926	     32.38183489	     12.10914828	    -13.10967890	    -19.69661250	      1.07654601	     -3.61242357	    -49.44723615	      8.39248943	    -15.87066199	     -6.47343402	    -48.96015458	    -25.93522229	      5.59302562	     48.28745840	      8.84772737	     10.64123233	     -8.75445215
      5.29000000	     -9.70400134	    -12.28705125	      5.30363923	     -1.09514646	     -0.03579597	      2.05968182	     31.71555466	     13.10290657	    -13.17171257	    -19.68138661	      1.64221944	     -3.69851730	    -50.31406745	     10.34558859	    -16.73653376	     -5.60582847	    -51.90353463	    -28.19968798	      3.45357719	     47.01999217	      8.98853751	     11.37769436	     -8.57687296
      5.30000000	     -9.58862519	    -12.82542180	      5.05415022	     -1.08241144	     -0.03490925	      2.06078972	     30.76159668	     14.00682152	    -13.15368398	    -19.52986108	      2.33809636	     -3.69546111	    -52.01229795	     12.06393155	    -17.38401441	     -4.81348289	    -54.67220231	    -29.20595493	      1.46445131	     44.09686152	      8.89535817	     11.98967264	     -8.22202316
      5.31000000	     -9.39063312	    -13.23639989	      4.97805443	     -1.06984578	     -0.03372123	      2.06169028	     29.64887065	     14.70112550	    -13.29931781	    -19.28133682	      2.94561145	     -3.53186622	    -52.27751624	     13.71461838	    -17.77081578	     -3.83794118	    -57.08682157	    -29.59998638	     -0.66474663	     43.40871932	      8.72503669	     12.43718860	     -7.99796782
      5.32000000	     -9.33050514	    -13.53030605	      4.80148733	     -1.05738183	     -0.03262326	      2.06251305	     28.62885265	     15.26646020	    -13.34992477	    -19.03490273	      3.95226698	     -3.06383840	    -54.20161704	     15.51295866	    -17.93538860	     -2.92060230	    -59.45763020	    -28.45817449	     -2.25650748	     40.32022856	      8.67397098	     12.78333275	     -7.60314609
      5.33000000	     -9.01911677	    -13.73946816	      4.81388349	     -1.04504074	     -0.03108178	      2.06307385	     27.23673809	     15.72850501	    -13.31979581	    -18.60453427	      5.06722025	     -2.60839341	    -56.98435858	     17.03200116	    -17.90267042	     -1.85385302	    -61.40732502	    -26.97090041	     -3.75149862	     39.27504639	      8.37475217	     13.03195154	     -7.32157303
      5.34000000	     -8.80339564	    -13.83843770	      4.83251077	     -1.03291479	     -0.02951231	      2.06371584	     25.88898579	     16.12967784	    -12.99101792	    -18.07520242	      5.66469032	     -2.54928277	    -57.00683451	     18.63396823	    -17.67020590	     -0.78849404	    -63.01149988	    -25.35006766	     -5.13966518	     39.29941440	      8.15280007	     13.13465783	     -7.02424928
      5.35000000	     -8.55749359	    -13.89493899	      4.84678226	     -1.02080897	     -0.02783036	      2.06433039	     24.40888010	     16.53199312	    -12.42901120	    -17.38312700	      6.15492840	     -2.65175153	    -57.00112570	     20.14287443	    -17.35697194	      0.20218465	    -64.28622065	    -23.53168574	     -6.22532913	     39.26442667	      7.90808693	     13.19692916	     -6.70537829
      5.36000000	     -8.27226028	    -13.84452935	      4.96570868	     -1.00893643	     -0.02604393	      2.06482634	     22.83920460	     16.81213725	    -11.77498059	    -16.58134405	      6.52805303	     -2.94160548	    -56.96118240	     21.59300952	    -16.84028570	      1.24358235	    -65.24361427	    -21.64990786	     -6.93436735	     39.13753222	      7.60970704	     13.12601177	     -6.48415420
